# AST/ASF file generated using VICON BodyLanguage
# -----------------------------------------------
:version 1.10
:name VICON
:units
  mass 1.0
  length 0.45
  angle deg
:documentation
   .ast/.asf automatically generated from VICON data using
   VICON BodyBuilder and BodyLanguage model FoxedUp or BRILLIANT.MOD
:root
   order TX TY TZ RX RY RZ
   axis XYZ
   position 0 0 0  
   orientation 0 0 0 
:bonedata
  begin
     id 1 
     name lhipjoint
     direction 0.567149 -0.783011 0.255413 
     length 2.28399 
     axis 0 0 0  XYZ
  end
  begin
     id 2 
     name lfemur
     direction 0.34202 -0.939693 0  
     length 7.34031  
     axis 0 0 20  XYZ
    dof rx ry rz
    limits (-160.0 20.0)
           (-70.0 70.0)
           (-60.0 70.0)
  end
  begin
     id 3 
     name ltibia
     direction 0.34202 -0.939693 0   
     length 6.9833   
     axis 0 0 20   XYZ
    dof rx
    limits (-10.0 170.0)
  end
  begin
     id 4 
     name lfoot
     direction 0.136498 -0.375025 0.91691   
     length 2.33665   
     axis -90 7.62852e-016 20   XYZ
    dof rx rz
    limits (-45.0 90.0)
           (-70.0 20.0)
  end
  begin
     id 5 
     name ltoes
     direction 1.5367e-011 -4.21617e-011 1   
     length 1.15039   
     axis -90 7.62852e-016 20   XYZ
    dof rx
    limits (-90.0 20.0)
  end
  begin
     id 6 
     name rhipjoint
     direction -0.602854 -0.758518 0.247423   
     length 2.35775  
     axis 0 0 0  XYZ 
  end
  begin
     id 7 
     name rfemur
     direction -0.34202 -0.939693 0   
     length 7.43932   
     axis 0 0 -20   XYZ
    dof rx ry rz
    limits (-160.0 20.0)
           (-70.0 70.0)
           (-70.0 60.0)
  end
  begin
     id 8 
     name rtibia
     direction -0.34202 -0.939693 0   
     length 7.11893   
     axis 0 0 -20   XYZ
    dof rx
    limits (-10.0 170.0)
 end
 begin
     id 9 
     name rfoot
     direction -0.131771 -0.362037 0.922803   
     length 2.53019  
     axis -90 -7.62852e-016 -20   XYZ
    dof rx rz
    limits (-45.0 90.0)
           (-20.0 70.0)
  end
  begin
     id 10 
     name rtoes
     direction -1.53733e-011 -4.21932e-011 1   
     length 1.24596   
     axis -90 -7.62852e-016 -20   XYZ
    dof rx
    limits (-90.0 20.0)
  end
  begin
     id 11 
     name lowerback
     direction 0.0235427 0.999023 -0.0374125   
     length 2.21768   
     axis 0 0 0   XYZ
    dof rx ry rz
    limits (-20.0 45.0)
           (-30.0 30.0)
           (-30.0 30.0)
  end
  begin
     id 12 
     name upperback
     direction 0.0302156 0.996818 -0.073759   
     length 2.20352   
     axis 0 0 0   XYZ
    dof rx ry rz
    limits (-20.0 45.0)
           (-30.0 30.0)
           (-30.0 30.0)
  end
  begin
     id 13 
     name thorax
     direction 0.0187169 0.998235 -0.0563532   
     length 2.22103   
     axis 0 0 0   XYZ
    dof rx ry rz
    limits (-20.0 45.0)
           (-30.0 30.0)
           (-30.0 30.0)
  end
  begin
     id 14 
     name lowerneck
     direction -0.119528 0.987423 0.103481   
     length 1.72948   
     axis 0 0 0   XYZ
    dof rx ry rz
    limits (-20.0 45.0)
           (-30.0 30.0)
           (-30.0 30.0)
  end
  begin
     id 15 
     name upperneck
     direction 0.248049 0.963095 -0.104496   
     length 1.74979   
     axis 0 0 0   XYZ
    dof rx ry rz
    limits (-20.0 45.0)
           (-30.0 30.0)
           (-30.0 30.0)
  end
  begin
     id 16
     name head
     direction 0.0903589 0.994284 -0.056876  
     length 1.78268  
     axis 0 0 0   XYZ
    dof rx ry rz
    limits (-20.0 45.0)
           (-30.0 30.0)
           (-30.0 30.0)
  end
  begin
     id 17 
     name lclavicle
     direction 0.946008 0.242039 -0.215608  
     length 3.80783  
     axis 0 0 0   XYZ
    dof ry rz
    limits (-20.0 10.0)
           (0.0 20.0)
  end
  begin
     id 18 
     name lhumerus
     direction 1 -4.48991e-011 -2.25695e-027   
     length 4.83125   
     axis 180 -30 -90   XYZ
    dof rx ry rz
    limits (-60.0 90.0)
           (-90.0 90.0)
           (-90.0 90.0)
  end
  begin
     id 19
     name lradius
     direction 0.999991 0.00366712 -0.00211721   
     length 3.00391   
     axis 180 -30 -90   XYZ
    dof rx
    limits (-10.0 170.0)
  end
  begin
     id 20
     name lwrist
     direction 0.999991 0.00393016 -0.00141978   
     length 1.50195   
     axis -1.00488e-014 90 90   XYZ
    dof ry
    limits (-180.0 0.0)
 end
  begin
     id 21 
     name lhand
     direction 1 -4.49123e-011 2.72098e-026   
     length 1.2717   
     axis -1.73687e-014 90 90   XYZ
    dof rx rz
    limits (-90.0 90.0)
           (-45.0 45.0)
  end
  begin
     id 22 
     name lfingers
     direction 1 -4.48678e-011 5.4479e-026   
     length 1.02528   
     axis -3.47372e-014 90 90   XYZ
    dof rx
    limits (0.0 90.0)
  end
  begin
     id 23
     name lthumb
     direction 0.707107 -6.34851e-011 0.707107   
     length 1.4721   
     axis -90 45 -1.62303e-014   XYZ
    dof rx rz
    limits (-45.0 45.0)
           (-45.0 45.0)
  end
  begin
     id 24 
     name rclavicle
     direction -0.981723 0.189447 -0.0181673   
     length 3.74989  
     axis 0 0 0   XYZ 
    dof ry rz
    limits (-10.0 20.0)
           (-20.0 0.0)
  end
  begin
     id 25 
     name rhumerus
     direction -1 -4.48985e-011 2.38206e-027  
     length 4.61118   
     axis 180 30 90   XYZ
    dof rx ry rz
    limits (-90.0 60.0)
           (-90.0 90.0)
           (-90.0 90.0)
  end
  begin
     id 26 
     name rradius
     direction -1 -4.48977e-011 7.41019e-027   
     length 2.91491   
     axis 180 30 90   XYZ
    dof rx
    limits (-10.0 170.0)
  end
  begin
     id 27 
     name rwrist
     direction -1 -4.48549e-011 1.3624e-026   
     length 1.45745   
     axis -1.00488e-014 -90 -90   XYZ
    dof ry
    limits (-180.0 0.0)
  end
  begin
     id 28
     name rhand
     direction -1 -4.49107e-011 2.72109e-026   
     length 1.30769   
     axis -1.73687e-014 -90 -90   XYZ
    dof rx rz
    limits (-90.0 90.0)
           (-45.0 45.0)
  end
  begin
     id 29
     name rfingers
     direction -1 -4.48919e-011 5.44468e-026   
     length 1.05429   
     axis -3.47372e-014 -90 -90   XYZ
    dof rx
    limits (0.0 90.0)
  end
  begin
     id 30
     name rthumb
     direction -0.707107 -6.35315e-011 0.707107   
     length 1.51376   
     axis -90 -45 1.62303e-014   XYZ
    dof rx rz
    limits (-45.0 45.0)
           (-45.0 45.0)
  end
:hierarchy
  begin
    root lhipjoint rhipjoint lowerback
    lhipjoint lfemur
    lfemur ltibia
    ltibia lfoot
    lfoot ltoes
    rhipjoint rfemur
    rfemur rtibia
    rtibia rfoot
    rfoot rtoes
    lowerback upperback
    upperback thorax
    thorax lowerneck lclavicle rclavicle
    lowerneck upperneck
    upperneck head
    lclavicle lhumerus
    lhumerus lradius
    lradius lwrist
    lwrist lhand lthumb
    lhand lfingers
    rclavicle rhumerus
    rhumerus rradius
    rradius rwrist
    rwrist rhand rthumb
    rhand rfingers
  end

#!OML:ASF X:\für Bonn\!DataBase\2005_08_11_Bastian_Final\c3d\Bastian.ASF
:FULLY-SPECIFIED
:DEGREES
18
root 2.72348 15.0969 -42.4438 554.94 -188.061 -180.216
lowerback 27.3817 -2.15846 3.4661
upperback -1.53744 -1.96706 -1.60416
thorax -16.6545 -1.23645 -2.90249
lowerneck 13.7444 -5.20182 -3.40411
upperneck -26.4772 -4.69816 13.3882
head -10.2489 -3.47603 6.00117
rclavicle 2.38542e-015 -2.42517e-014
rhumerus -56.2662 -4.349 -79.252
rradius 30.5524
rwrist 5.15218
rhand -26.4719 20.8981
rfingers 7.12502
rthumb 0.0899405 -9.08158
lclavicle 2.38542e-015 -2.42517e-014
lhumerus -52.2081 13.6986 60.065
lradius 34.2083
lwrist -163.413
lhand -16.993 15.1928
lfingers 7.12502
lthumb 9.24208 44.9703
rfemur -48.7442 -8.7028 20.735
rtibia 79.6568
rfoot -36.41 -1.56733
rtoes -7.81824
lfemur -45.4462 -1.79423 -19.076
ltibia 76.872
lfoot -35.2405 -13.2511
ltoes 0.507927
19
root 2.71256 14.9559 -42.4014 554.991 -187.981 -179.881
lowerback 27.9151 -2.13906 3.2379
upperback -1.69644 -2.01944 -1.71179
thorax -17.1146 -1.25209 -2.86435
lowerneck 14.2159 -5.15907 -3.66017
upperneck -26.8867 -4.63434 13.5483
head -10.4834 -3.45368 6.15256
rclavicle 3.97569e-016 5.56597e-015
rhumerus -54.3779 -4.35611 -80.1723
rradius 30.5561
rwrist 4.81928
rhand -26.5724 20.6874
rfingers 7.12502
rthumb -0.00707721 -9.29238
lclavicle 3.97569e-016 5.56597e-015
lhumerus -50.5953 13.4816 61.617
lradius 34.601
lwrist -162.669
lhand -16.7762 16.514
lfingers 7.12502
lthumb 9.45127 46.282
rfemur -49.471 -8.93287 20.4308
rtibia 81.4528
rfoot -37.1032 -1.4119
rtoes -7.55844
lfemur -46.073 -1.70213 -19.4378
ltibia 78.5992
lfoot -36.156 -13.3207
ltoes 0.429972
20
root 2.70057 14.8229 -42.3522 555.067 -187.865 -179.544
lowerback 28.28 -2.11267 2.96295
upperback -1.77715 -2.08237 -1.794
thorax -17.3941 -1.26233 -2.77101
lowerneck 14.5204 -5.05974 -4.15395
upperneck -27.2566 -4.50941 13.8855
head -10.6634 -3.39636 6.3941
rclavicle -1.94809e-014 -3.97569e-015
rhumerus -52.1901 -4.2085 -81.1288
rradius 30.5481
rwrist 4.81433
rhand -26.3228 20.4878
rfingers 7.12502
rthumb 0.233944 -9.49183
lclavicle -1.94809e-014 -3.97569e-015
lhumerus -48.7503 12.978 63.5047
lradius 35.2252
lwrist -161.781
lhand -16.4821 17.2138
lfingers 7.12502
lthumb 9.73502 46.9689
rfemur -50.1354 -9.12458 20.1198
rtibia 83.1094
rfoot -37.7417 -1.30129
rtoes -7.56481
lfemur -46.6185 -1.59554 -19.802
ltibia 80.1912
lfoot -37.0695 -13.4187
ltoes 0.338378
21
root 2.68835 14.6996 -42.2995 555.242 -187.812 -179.483
lowerback 28.4535 -2.11365 2.97991
upperback -1.87363 -2.07598 -1.80448
thorax -17.5988 -1.2653 -2.79155
lowerneck 14.7682 -4.947 -4.74913
upperneck -27.5929 -4.36125 14.3508
head -10.8167 -3.33152 6.69627
rclavicle -9.54166e-015 1.66979e-014
rhumerus -49.9432 -3.9194 -82.1751
rradius 30.7508
rwrist 4.91168
rhand -26.3677 21.0876
rfingers 7.12502
rthumb 0.190628 -8.89203
lclavicle -9.54166e-015 1.66979e-014
lhumerus -46.6343 12.2208 65.563
lradius 35.9964
lwrist -160.947
lhand -16.1907 16.9245
lfingers 7.12502
lthumb 10.0162 46.6661
rfemur -50.821 -9.23626 20.166
rtibia 84.5811
rfoot -38.3399 -1.30929
rtoes -7.40534
lfemur -47.2794 -1.43322 -19.8234
ltibia 81.6753
lfoot -37.9435 -13.6466
ltoes 0.376304
22
root 2.67523 14.589 -42.2418 555.386 -187.798 -179.463
lowerback 28.5172 -2.12308 3.0483
upperback -1.89261 -2.05846 -1.77881
thorax -17.6532 -1.26341 -2.80692
lowerneck 14.9426 -4.81819 -5.47288
upperneck -27.9613 -4.20904 14.8708
head -10.9634 -3.25594 7.04414
rclavicle 1.13307e-014 -1.98785e-015
rhumerus -47.5757 -3.23746 -83.3918
rradius 31.2412
rwrist 4.88206
rhand -26.2613 21.2048
rfingers 7.12502
rthumb 0.293345 -8.77469
lclavicle 1.13307e-014 -1.98785e-015
lhumerus -44.1444 11.5362 67.604
lradius 36.6652
lwrist -160.46
lhand -16.013 16.0223
lfingers 7.12502
lthumb 10.1876 45.7557
rfemur -51.3804 -9.3492 20.2655
rtibia 85.8911
rfoot -38.8897 -1.39015
rtoes -7.55768
lfemur -47.7887 -1.30164 -19.7778
ltibia 82.9849
lfoot -38.8087 -13.8767
ltoes 0.466206
23
root 2.66229 14.4903 -42.1781 555.368 -187.797 -179.331
lowerback 28.586 -2.12616 3.0434
upperback -1.82432 -2.06406 -1.79481
thorax -17.6048 -1.26406 -2.81832
lowerneck 15.0596 -4.69375 -6.29268
upperneck -28.2634 -4.07281 15.4718
head -11.0678 -3.18488 7.43761
rclavicle 0 -1.82882e-014
rhumerus -45.2013 -2.32334 -84.6503
rradius 31.9685
rwrist 4.98211
rhand -26.3014 21.1875
rfingers 7.12502
rthumb 0.254686 -8.79212
lclavicle 0 -1.82882e-014
lhumerus -41.4618 10.54 69.7271
lradius 37.3765
lwrist -159.725
lhand -15.985 16.123
lfingers 7.12502
lthumb 10.2146 45.855
rfemur -51.5916 -9.52001 20.1961
rtibia 87.021
rfoot -39.4515 -1.3287
rtoes -7.38787
lfemur -47.9374 -1.25308 -19.8509
ltibia 84.1079
lfoot -39.6391 -14.107
ltoes 0.772397
24
root 2.64866 14.4102 -42.1054 555.337 -187.827 -179.178
lowerback 28.4613 -2.12822 3.00792
upperback -1.67608 -2.08229 -1.804
thorax -17.3628 -1.26381 -2.8035
lowerneck 15.091 -4.56405 -7.16148
upperneck -28.5854 -3.91802 16.1466
head -11.1632 -3.10591 7.8697
rclavicle -2.10712e-014 6.75868e-015
rhumerus -42.7753 -1.11821 -85.9346
rradius 33.0146
rwrist 5.02137
rhand -26.4194 21.1116
rfingers 7.12502
rthumb 0.140698 -8.86805
lclavicle -2.10712e-014 6.75868e-015
lhumerus -38.7428 9.19464 71.8785
lradius 38.2713
lwrist -158.588
lhand -16.1477 16.9648
lfingers 7.12502
lthumb 10.0576 46.7044
rfemur -51.6367 -9.72387 20.1105
rtibia 87.9445
rfoot -39.9714 -1.31081
rtoes -7.3255
lfemur -47.8932 -1.2639 -19.9159
ltibia 85.0003
lfoot -40.3118 -14.4104
ltoes 1.13985
25
root 2.63506 14.3467 -42.0242 555.279 -187.944 -179.133
lowerback 28.3009 -2.16347 3.08095
upperback -1.55986 -2.09849 -1.75649
thorax -17.1433 -1.27041 -2.78731
lowerneck 15.0483 -4.45407 -7.99499
upperneck -28.7574 -3.81947 16.7192
head -11.1846 -3.0405 8.24764
rclavicle 2.68359e-014 -7.95139e-015
rhumerus -40.6037 0.422799 -87.17
rradius 34.5624
rwrist 5.10429
rhand -26.5945 20.8356
rfingers 7.12502
rthumb -0.028427 -9.14414
lclavicle 2.68359e-014 -7.95139e-015
lhumerus -36.1792 7.78854 73.8359
lradius 39.3323
lwrist -157.616
lhand -16.4823 17.6813
lfingers 7.12502
lthumb 9.73486 47.4363
rfemur -51.4858 -9.91096 20.1447
rtibia 88.6518
rfoot -40.4715 -1.3111
rtoes -7.29031
lfemur -47.7059 -1.28962 -19.8509
ltibia 85.6996
lfoot -40.8731 -14.6084
ltoes 1.18669
26
root 2.62144 14.3006 -41.9291 555.224 -188.138 -179.199
lowerback 27.9954 -2.24041 3.27068
upperback -1.42245 -2.13293 -1.69553
thorax -16.8322 -1.2934 -2.81643
lowerneck 14.9134 -4.41825 -8.49078
upperneck -28.9154 -3.81875 16.9737
head -11.1892 -3.01417 8.44463
rclavicle 1.19271e-015 7.15625e-015
rhumerus -38.6852 2.19923 -88.3588
rradius 36.8062
rwrist 4.95319
rhand -26.3575 20.3199
rfingers 7.12502
rthumb 0.200434 -9.65975
lclavicle 1.19271e-015 7.15625e-015
lhumerus -33.6226 6.3212 75.5476
lradius 40.6314
lwrist -156.917
lhand -16.9102 17.8912
lfingers 7.12502
lthumb 9.32203 47.6651
rfemur -51.128 -10.1079 20.3097
rtibia 89.1196
rfoot -40.9797 -1.26863
rtoes -7.24255
lfemur -47.3842 -1.37869 -19.6304
ltibia 86.1993
lfoot -41.3817 -14.8287
ltoes 1.10161
27
root 2.60864 14.2656 -41.825 555.134 -188.347 -179.313
lowerback 27.6117 -2.32349 3.49616
upperback -1.26075 -2.16973 -1.64284
thorax -16.4563 -1.31944 -2.87592
lowerneck 14.6285 -4.44405 -8.71292
upperneck -28.9945 -3.88986 17.004
head -11.1378 -3.01927 8.49317
rclavicle 2.28602e-014 1.15295e-014
rhumerus -37.0424 4.11966 -89.4086
rradius 39.7905
rwrist 4.45973
rhand -25.6326 19.416
rfingers 7.12502
rthumb 0.900614 -10.5619
lclavicle 2.28602e-014 1.15295e-014
lhumerus -31.1546 4.73959 77.0554
lradius 42.6433
lwrist -156.368
lhand -17.7964 17.2667
lfingers 7.12502
lthumb 8.46684 47.077
rfemur -50.6176 -10.2616 20.5082
rtibia 89.4092
rfoot -41.4448 -1.23396
rtoes -7.17885
lfemur -46.9204 -1.44484 -19.3524
ltibia 86.5226
lfoot -41.828 -15.0572
ltoes 0.834382
28
root 2.59641 14.2421 -41.7112 555.033 -188.52 -179.443
lowerback 27.1406 -2.39574 3.6338
upperback -1.06573 -2.22311 -1.56771
thorax -15.9957 -1.34217 -2.85874
lowerneck 14.2747 -4.48472 -8.74953
upperneck -29.1645 -3.95401 16.9068
head -11.119 -3.02354 8.46252
rclavicle -1.39149e-015 1.43125e-014
rhumerus -35.4902 6.111 -90.2556
rradius 43.0888
rwrist 3.82389
rhand -25.7854 19.3275
rfingers 7.12502
rthumb 0.753044 -10.6509
lclavicle -1.39149e-015 1.43125e-014
lhumerus -28.8148 3.24576 78.2987
lradius 45.1535
lwrist -155.576
lhand -19.4147 17.3379
lfingers 7.12502
lthumb 6.90483 47.2053
rfemur -49.9849 -10.3806 20.7114
rtibia 89.5152
rfoot -41.8861 -1.211
rtoes -7.1781
lfemur -46.3488 -1.50626 -19.0712
ltibia 86.6858
lfoot -42.2214 -15.1087
ltoes 0.0123741
29
root 2.58376 14.2306 -41.5891 554.925 -188.631 -179.618
lowerback 26.6474 -2.45159 3.72222
upperback -0.874104 -2.27394 -1.4923
thorax -15.528 -1.35981 -2.81726
lowerneck 13.849 -4.49732 -8.66382
upperneck -29.3784 -3.93569 16.8025
head -11.1209 -3.00004 8.40041
rclavicle 0 -1.07344e-014
rhumerus -34.0489 8.22609 -91.0096
rradius 46.6338
rwrist 2.87842
rhand -26.4724 20.1799
rfingers 7.12502
rthumb 0.0895254 -9.79979
lclavicle 0 -1.07344e-014
lhumerus -26.6557 1.73412 79.2769
lradius 48.0702
lwrist -154.569
lhand -20.9627 17.3481
lfingers 7.12502
lthumb 5.41034 47.259
rfemur -49.2355 -10.3841 20.944
rtibia 89.4138
rfoot -42.3096 -1.17493
rtoes -7.18803
lfemur -45.7041 -1.4814 -18.7422
ltibia 86.6739
lfoot -42.4919 -15.1005
ltoes -1.03452
30
root 2.57132 14.2356 -41.4564 554.826 -188.729 -179.749
lowerback 26.1065 -2.48673 3.71326
upperback -0.325454 -2.32712 -1.34269
thorax -15.3171 -1.39349 -2.80971
lowerneck 13.2398 -4.50946 -8.43615
upperneck -29.5943 -3.87178 16.6797
head -11.0987 -2.96454 8.2911
rclavicle -2.08724e-014 1.15295e-014
rhumerus -32.626 10.3759 -91.584
rradius 50.4237
rwrist 1.51028
rhand -26.4879 21.0342
rfingers 7.12502
rthumb 0.0744719 -8.94552
lclavicle -2.08724e-014 1.15295e-014
lhumerus -24.6346 0.0805876 80.1035
lradius 50.9673
lwrist -153.519
lhand -21.912 18.4001
lfingers 7.12502
lthumb 4.49376 48.3324
rfemur -48.3446 -10.3825 21.1153
rtibia 89.0915
rfoot -42.7017 -1.07703
rtoes -7.06536
lfemur -44.9349 -1.50939 -18.459
ltibia 86.4633
lfoot -42.6665 -15.0592
ltoes -2.19753
31
root 2.56019 14.2586 -41.31 554.691 -188.756 -179.914
lowerback 25.659 -2.47796 3.65004
upperback -0.239131 -2.34269 -1.28127
thorax -14.955 -1.38628 -2.70387
lowerneck 12.4986 -4.54387 -7.9688
upperneck -29.5052 -3.85008 16.3687
head -10.942 -2.94968 8.03076
rclavicle 4.77083e-015 1.51076e-014
rhumerus -31.5279 12.3345 -91.924
rradius 54.5228
rwrist 0.963621
rhand -25.6074 20.6258
rfingers 7.12502
rthumb 0.924941 -9.35193
lclavicle 4.77083e-015 1.51076e-014
lhumerus -23.0739 -1.61264 80.7378
lradius 54.098
lwrist -152.753
lhand -22.2746 19.4026
lfingers 7.12502
lthumb 4.14365 49.3421
rfemur -47.2548 -10.2597 21.2943
rtibia 88.5088
rfoot -43.027 -1.11131
rtoes -7.36634
lfemur -43.9676 -1.44978 -18.158
ltibia 86.0233
lfoot -42.7481 -14.9768
ltoes -3.47685
32
root 2.54911 14.3013 -41.1486 554.577 -188.687 -180.024
lowerback 25.2115 -2.39666 3.38362
upperback -0.186267 -2.31873 -1.19307
thorax -14.6202 -1.34642 -2.46559
lowerneck 11.4196 -4.61779 -7.2543
upperneck -29.1769 -3.91068 15.7886
head -10.6333 -2.95922 7.59144
rclavicle -5.36719e-015 -4.37326e-015
rhumerus -30.8026 14.239 -91.937
rradius 58.9869
rwrist 0.912969
rhand -24.5316 19.6531
rfingers 7.12502
rthumb 1.96392 -10.3176
lclavicle -5.36719e-015 -4.37326e-015
lhumerus -21.6942 -3.16916 81.2402
lradius 57.6376
lwrist -152.355
lhand -22.5774 20.162
lfingers 7.12502
lthumb 3.85124 50.107
rfemur -46.0349 -10.0556 21.3874
rtibia 87.6859
rfoot -43.216 -1.15692
rtoes -7.82719
lfemur -42.8227 -1.36918 -17.9144
ltibia 85.3284
lfoot -42.6941 -14.9972
ltoes -4.49613
